PathFileType	4	(X/Y/Z) abd_0kg_1.trc																										
DataRate	CameraRate	NumFrames	NumMarkers	Units	OrigDataRate	OrigDataStartFrame	OrigNumFrames																					
100	100	59	9	mm	100	682	1091																					
Frame#	Time	gu			centelbow			EpL			centpxt8			centijc7			ij			ts			aa			ai		
		X1	Y1	Z1	X2	Y2	Z2	X3	Y3	Z3	X4	Y4	Z4	X5	Y5	Z5	X6	Y6	Z6	X7	Y7	Z7	X8	Y8	Z8	X9	Y9	Z9  
681	6.81	-99.657	61.358	98.751	-22.57	279.632	184.765	-46.065	290.895	165.777	-46.816	-153.158	-8.669	-46.816	31.938	-8.669	0	0	0	-147.6	-20.409	52.443	-140.955	87.828	102.097	-137.258	-63.285	157.039
682	6.82	-99.632	61.461	98.408	-21.919	279.921	183.382	-45.477	291.15	164.452	-46.816	-153.158	-8.669	-46.816	31.938	-8.669	0	0	0	-148.069	-20.657	52.869	-141.23	87.673	102.294	-137.63	-63.332	157.538
683	6.83	-99.766	61.805	97.982	-21.631	280.538	181.859	-45.231	291.711	162.949	-46.816	-153.158	-8.669	-46.816	31.938	-8.669	0	0	0	-148.428	-20.741	53.102	-141.487	87.69	102.289	-137.86	-63.199	157.845
684	6.84	-100.06	62.047	97.725	-21.604	281.032	180.638	-45.219	292.154	161.716	-46.816	-153.158	-8.669	-46.816	31.938	-8.669	0	0	0	-148.565	-20.618	53.045	-141.571	87.904	102.023	-137.838	-62.882	157.851
685	6.85	-100.362	62.059	97.877	-21.595	281.215	180.041	-45.202	292.305	161.089	-46.816	-153.158	-8.669	-46.816	31.938	-8.669	0	0	0	-148.63	-20.435	52.984	-141.574	88.162	101.789	-137.749	-62.54	157.838
686	6.86	-100.634	61.879	98.397	-21.458	281.116	179.95	-45.051	292.197	160.975	-46.816	-153.158	-8.669	-46.816	31.938	-8.669	0	0	0	-148.791	-20.335	53.164	-141.603	88.322	101.815	-137.772	-62.308	158.057
687	6.87	-100.953	61.521	98.961	-21.188	280.75	179.958	-44.781	291.844	160.992	-46.816	-153.158	-8.669	-46.816	31.938	-8.669	0	0	0	-149.107	-20.267	53.467	-141.683	88.44	101.972	-137.932	-62.127	158.389
688	6.88	-101.326	61.217	99.235	-20.846	280.384	179.691	-44.473	291.502	160.782	-46.816	-153.158	-8.669	-46.816	31.938	-8.669	0	0	0	-149.525	-20.099	53.612	-141.784	88.645	101.981	-138.129	-61.868	158.546
689	6.89	-101.651	61.33	99.104	-20.462	280.452	178.967	-44.167	291.587	160.165	-46.816	-153.158	-8.669	-46.816	31.938	-8.669	0	0	0	-149.879	-19.86	53.5	-141.796	88.913	101.747	-138.209	-61.556	158.433
690	6.9	-101.843	61.846	98.71	-20.025	280.975	177.911	-43.829	292.112	159.236	-46.816	-153.158	-8.669	-46.816	31.938	-8.669	0	0	0	-150.077	-19.78	53.361	-141.678	89.022	101.491	-138.17	-61.405	158.295
691	6.91	-101.896	62.325	98.375	-19.533	281.476	176.947	-43.422	292.612	158.379	-46.816	-153.158	-8.669	-46.816	31.938	-8.669	0	0	0	-150.226	-20.035	53.538	-141.553	88.793	101.559	-138.205	-61.591	158.486
692	6.92	-101.919	62.389	98.289	-19.073	281.525	176.39	-43.008	292.669	157.888	-46.816	-153.158	-8.669	-46.816	31.938	-8.669	0	0	0	-150.382	-20.463	54.002	-141.492	88.382	101.947	-138.353	-61.971	158.969
693	6.93	-102.073	62.076	98.353	-18.793	281.156	176.151	-42.744	292.319	157.679	-46.816	-153.158	-8.669	-46.816	31.938	-8.669	0	0	0	-150.471	-20.731	54.384	-141.433	88.122	102.283	-138.445	-62.212	159.362
694	6.94	-102.342	61.802	98.386	-18.716	280.828	175.965	-42.672	292.009	157.511	-46.816	-153.158	-8.669	-46.816	31.938	-8.669	0	0	0	-150.49	-20.726	54.462	-141.359	88.137	102.318	-138.408	-62.179	159.444
695	6.95	-102.502	61.891	98.31	-18.666	280.909	175.686	-42.638	292.094	157.256	-46.816	-153.158	-8.669	-46.816	31.938	-8.669	0	0	0	-150.517	-20.579	54.283	-141.323	88.303	102.086	-138.316	-61.991	159.268
696	6.96	-102.447	62.162	98.152	-18.499	281.204	175.337	-42.499	292.383	156.94	-46.816	-153.158	-8.669	-46.816	31.938	-8.669	0	0	0	-150.544	-20.422	53.983	-141.304	88.48	101.731	-138.203	-61.792	158.968
697	6.97	-102.378	62.24	97.962	-18.328	281.296	174.996	-42.357	292.471	156.633	-46.816	-153.158	-8.669	-46.816	31.938	-8.669	0	0	0	-150.553	-20.321	53.685	-141.276	88.594	101.397	-138.103	-61.664	158.668
698	6.98	-102.482	62.072	97.801	-18.327	281.121	174.74	-42.373	292.298	156.403	-46.816	-153.158	-8.669	-46.816	31.938	-8.669	0	0	0	-150.575	-20.314	53.503	-141.277	88.605	101.2	-138.074	-61.647	158.483
699	6.99	-102.626	61.846	97.725	-18.432	280.888	174.641	-42.484	292.067	156.312	-46.816	-153.158	-8.669	-46.816	31.938	-8.669	0	0	0	-150.582	-20.4	53.503	-141.287	88.523	101.192	-138.077	-61.724	158.487
700	7	-102.617	61.688	97.729	-18.491	280.744	174.68	-42.542	291.919	156.347	-46.816	-153.158	-8.669	-46.816	31.938	-8.669	0	0	0	-150.556	-20.529	53.64	-141.28	88.399	101.322	-138.06	-61.844	158.628
701	7.01	-102.503	61.646	97.799	-18.504	280.728	174.815	-42.553	291.895	156.474	-46.816	-153.158	-8.669	-46.816	31.938	-8.669	0	0	0	-150.552	-20.612	53.802	-141.286	88.313	101.49	-138.048	-61.932	158.787
702	7.02	-102.414	61.727	97.941	-18.537	280.831	175.028	-42.585	291.991	156.682	-46.816	-153.158	-8.669	-46.816	31.938	-8.669	0	0	0	-150.561	-20.553	53.915	-141.281	88.361	101.628	-138.03	-61.899	158.887
703	7.03	-102.339	61.887	98.085	-18.562	281.006	175.239	-42.611	292.161	156.89	-46.816	-153.158	-8.669	-46.816	31.938	-8.669	0	0	0	-150.526	-20.323	53.932	-141.206	88.572	101.679	-137.957	-61.708	158.884
704	7.04	-102.218	62.043	98.175	-18.53	281.176	175.385	-42.579	292.326	157.035	-46.816	-153.158	-8.669	-46.816	31.938	-8.669	0	0	0	-150.492	-20.054	53.834	-141.107	88.823	101.612	-137.879	-61.478	158.766
705	7.05	-102.1	62.125	98.255	-18.481	281.267	175.516	-42.529	292.414	157.162	-46.816	-153.158	-8.669	-46.816	31.938	-8.669	0	0	0	-150.59	-19.966	53.671	-141.12	88.889	101.478	-137.932	-61.431	158.581
706	7.06	-102.087	62.154	98.348	-18.508	281.29	175.667	-42.55	292.438	157.307	-46.816	-153.158	-8.669	-46.816	31.938	-8.669	0	0	0	-150.855	-20.121	53.506	-141.295	88.71	101.353	-138.17	-61.637	158.392
707	7.07	-102.182	62.18	98.394	-18.632	281.304	175.78	-42.667	292.455	157.411	-46.816	-153.158	-8.669	-46.816	31.938	-8.669	0	0	0	-151.146	-20.332	53.349	-141.516	88.469	101.247	-138.456	-61.906	158.212
708	7.08	-102.269	62.184	98.314	-18.779	281.3	175.788	-42.805	292.453	157.408	-46.816	-153.158	-8.669	-46.816	31.938	-8.669	0	0	0	-151.277	-20.438	53.209	-141.613	88.339	101.158	-138.591	-62.065	158.051
709	7.09	-102.221	62.126	98.05	-18.876	281.239	175.689	-42.889	292.391	157.291	-46.816	-153.158	-8.669	-46.816	31.938	-8.669	0	0	0	-151.188	-20.447	53.102	-141.527	88.308	101.102	-138.503	-62.122	157.926
710	7.1	-102.009	61.984	97.604	-18.919	281.077	175.57	-42.899	292.232	157.132	-46.816	-153.158	-8.669	-46.816	31.938	-8.669	0	0	0	-150.957	-20.432	53.012	-141.323	88.304	101.059	-138.277	-62.15	157.819
711	7.11	-101.683	61.766	97.062	-18.962	280.805	175.569	-42.877	291.971	157.054	-46.816	-153.158	-8.669	-46.816	31.938	-8.669	0	0	0	-150.724	-20.451	52.943	-141.118	88.269	101.032	-138.062	-62.205	157.737
712	7.12	-101.321	61.665	96.511	-19.116	280.649	175.711	-42.939	291.826	157.085	-46.816	-153.158	-8.669	-46.816	31.938	-8.669	0	0	0	-150.609	-20.528	52.946	-141.024	88.177	101.073	-137.97	-62.315	157.73
713	7.13	-101.002	61.942	95.999	-19.491	280.926	175.914	-43.216	292.098	157.16	-46.816	-153.158	-8.669	-46.816	31.938	-8.669	0	0	0	-150.621	-20.637	52.997	-141.079	88.048	101.175	-138.008	-62.468	157.766
714	7.14	-100.803	62.398	95.702	-20.077	281.408	176.339	-43.702	292.568	157.451	-46.816	-153.158	-8.669	-46.816	31.938	-8.669	0	0	0	-150.658	-20.717	52.911	-141.241	87.932	101.197	-138.11	-62.634	157.654
715	7.15	-100.712	62.475	95.874	-20.707	281.436	177.358	-44.217	292.603	158.332	-46.816	-153.158	-8.669	-46.816	31.938	-8.669	0	0	0	-150.581	-20.735	52.459	-141.441	87.843	100.956	-138.179	-62.816	157.153
716	7.16	-100.592	62.039	96.417	-21.218	280.846	178.926	-44.6	292.047	159.762	-46.816	-153.158	-8.669	-46.816	31.938	-8.669	0	0	0	-150.302	-20.74	51.622	-141.617	87.737	100.429	-138.133	-63.059	156.248
717	7.17	-100.461	61.527	96.855	-21.722	280.145	180.466	-44.982	291.388	161.179	-46.816	-153.158	-8.669	-46.816	31.938	-8.669	0	0	0	-149.895	-20.792	50.711	-141.767	87.576	99.855	-137.995	-63.364	155.265
718	7.18	-100.507	61.41	96.884	-22.485	279.867	181.58	-45.654	291.141	162.201	-46.816	-153.158	-8.669	-46.816	31.938	-8.669	0	0	0	-149.471	-20.872	50.08	-141.892	87.401	99.52	-137.809	-63.661	154.573
719	7.19	-100.664	61.832	96.625	-23.461	280.158	182.404	-46.571	291.45	162.966	-46.816	-153.158	-8.669	-46.816	31.938	-8.669	0	0	0	-148.983	-20.929	49.819	-141.903	87.267	99.501	-137.536	-63.892	154.264
720	7.2	-100.733	62.49	96.383	-24.378	280.668	183.287	-47.445	291.98	163.809	-46.816	-153.158	-8.669	-46.816	31.938	-8.669	0	0	0	-148.426	-20.934	49.789	-141.822	87.192	99.688	-137.228	-64.052	154.198
721	7.21	-100.857	62.884	96.366	-25.272	280.851	184.466	-48.289	292.197	164.949	-46.816	-153.158	-8.669	-46.816	31.938	-8.669	0	0	0	-148.029	-20.862	49.763	-141.896	87.189	99.884	-137.14	-64.142	154.137
722	7.22	-101.235	62.838	96.565	-26.349	280.525	185.943	-49.294	291.924	166.372	-46.816	-153.158	-8.669	-46.816	31.938	-8.669	0	0	0	-147.926	-20.7	49.556	-142.263	87.265	99.919	-137.375	-64.164	153.888
723	7.23	-101.68	62.492	96.835	-27.518	279.87	187.561	-50.366	291.329	167.912	-46.816	-153.158	-8.669	-46.816	31.938	-8.669	0	0	0	-147.847	-20.59	49.216	-142.657	87.282	99.828	-137.661	-64.248	153.503
724	7.24	-101.908	62.012	97.076	-28.557	279.057	189.245	-51.287	290.581	169.498	-46.816	-153.158	-8.669	-46.816	31.938	-8.669	0	0	0	-147.478	-20.791	48.949	-142.761	86.984	99.812	-137.706	-64.647	153.193
725	7.25	-101.896	61.62	97.292	-29.505	278.302	191.061	-52.105	289.895	171.205	-46.816	-153.158	-8.669	-46.816	31.938	-8.669	0	0	0	-146.953	-21.211	48.745	-142.738	86.455	99.883	-137.627	-65.289	152.936
726	7.26	-101.839	61.573	97.495	-30.617	277.891	192.985	-53.089	289.544	173.019	-46.816	-153.158	-8.669	-46.816	31.938	-8.669	0	0	0	-146.639	-21.342	48.352	-143.004	86.19	99.815	-137.697	-65.69	152.462
727	7.27	-101.934	61.907	97.627	-32.071	277.898	194.844	-54.425	289.597	174.774	-46.816	-153.158	-8.669	-46.816	31.938	-8.669	0	0	0	-146.518	-20.977	47.738	-143.529	86.394	99.576	-137.856	-65.639	151.737
728	7.28	-102.172	62.369	97.631	-33.731	278.039	196.56	-55.981	289.776	176.396	-46.816	-153.158	-8.669	-46.816	31.938	-8.669	0	0	0	-146.285	-20.561	47.263	-143.921	86.631	99.503	-137.885	-65.57	151.134
729	7.29	-102.367	62.686	97.541	-35.275	277.953	198.253	-57.425	289.746	178.012	-46.816	-153.158	-8.669	-46.816	31.938	-8.669	0	0	0	-145.925	-20.573	47.161	-144.081	86.431	99.807	-137.881	-65.943	150.903
730	7.3	-102.399	62.936	97.428	-36.567	277.696	200.036	-58.615	289.566	179.728	-46.816	-153.158	-8.669	-46.816	31.938	-8.669	0	0	0	-145.615	-20.918	47.179	-144.201	85.897	100.22	-138.004	-66.651	150.795
731	7.31	-102.268	63.353	97.437	-37.698	277.548	202.009	-59.641	289.505	181.638	-46.816	-153.158	-8.669	-46.816	31.938	-8.669	0	0	0	-145.247	-21.228	47.056	-144.247	85.389	100.505	-138.064	-67.34	150.534
732	7.32	-102.153	63.781	97.734	-38.882	277.355	204.353	-60.713	289.406	183.918	-46.816	-153.158	-8.669	-46.816	31.938	-8.669	0	0	0	-144.68	-21.366	46.887	-144.137	85.017	100.804	-137.909	-67.916	150.197
733	7.33	-102.311	63.899	98.203	-40.337	276.761	206.983	-62.042	288.926	186.48	-46.816	-153.158	-8.669	-46.816	31.938	-8.669	0	0	0	-144.113	-21.289	46.698	-144.071	84.823	101.149	-137.752	-68.343	149.805
734	7.34	-102.666	63.786	98.538	-41.969	275.856	209.564	-63.536	288.148	188.993	-46.816	-153.158	-8.669	-46.816	31.938	-8.669	0	0	0	-143.703	-20.823	46.27	-144.163	84.999	101.282	-137.716	-68.408	149.156
735	7.35	-102.891	63.705	98.712	-43.465	274.897	212.073	-64.889	287.332	191.438	-46.816	-153.158	-8.669	-46.816	31.938	-8.669	0	0	0	-143.428	-20.116	45.646	-144.312	85.409	101.22	-137.776	-68.24	148.3
736	7.36	-102.872	63.662	98.935	-44.714	273.857	214.781	-65.997	286.453	194.098	-46.816	-153.158	-8.669	-46.816	31.938	-8.669	0	0	0	-143.323	-19.747	45.198	-144.5	85.468	101.352	-138.046	-68.435	147.605
737	7.37	-102.751	63.64	99.291	-45.872	272.748	217.709	-67.021	285.516	196.993	-46.816	-153.158	-8.669	-46.816	31.938	-8.669	0	0	0	-143.334	-19.899	45.044	-144.731	84.99	101.799	-138.5	-69.179	147.189
738	7.38	-102.72	63.786	99.652	-47.162	271.804	220.592	-68.19	284.735	199.855	-46.816	-153.158	-8.669	-46.816	31.938	-8.669	0	0	0	-143.28	-20.07	44.852	-144.957	84.488	102.207	-138.889	-69.94	146.731
739	7.39	-102.91	64.055	99.942	-48.73	270.972	223.368	-69.653	284.06	202.622	-46.816	-153.158	-8.669	-46.816	31.938	-8.669	0	0	0	-143.049	-19.883	44.402	-145.142	84.349	102.333	-139.065	-70.317	146.02
